G04*
G04 #@! TF.GenerationSoftware,Altium Limited,CircuitMaker,2.2.1 (6)*
G04*
G04 Layer_Color=15132400*
%FSLAX25Y25*%
%MOIN*%
G70*
G04*
G04 #@! TF.SameCoordinates,E9A488FF-F020-425E-AD06-6B1E6BE10ADD*
G04*
G04*
G04 #@! TF.FilePolarity,Positive*
G04*
G01*
G75*
%ADD10C,0.01000*%
%ADD11C,0.02000*%
%ADD12C,0.00400*%
%ADD13C,0.00787*%
%ADD14C,0.00591*%
D10*
X311559Y422000D02*
G03*
X311559Y422000I-984J0D01*
G01*
X585559Y421685D02*
G03*
X585559Y421685I-984J0D01*
G01*
X399559D02*
G03*
X399559Y421685I-984J0D01*
G01*
X487559Y422000D02*
G03*
X487559Y422000I-984J0D01*
G01*
X248000Y198200D02*
Y376200D01*
X320000D01*
Y198200D02*
Y376200D01*
X248000Y198200D02*
X320000D01*
X591566Y290575D02*
X590553Y289588D01*
X590528Y287589D01*
X591515Y286576D01*
X595513Y286525D01*
X596525Y287512D01*
X596551Y289511D01*
X595564Y290524D01*
X593565Y290549D01*
X593539Y288550D01*
X596589Y292510D02*
X590592Y292587D01*
X596640Y296509D01*
X590643Y296585D01*
X590668Y298584D02*
X596666Y298508D01*
X596704Y301507D01*
X595717Y302519D01*
X591719Y302570D01*
X590706Y301583D01*
X590668Y298584D01*
X596742Y304505D02*
X596768Y306505D01*
X596755Y305505D01*
X592756Y305556D01*
X592744Y304556D01*
X596806Y309503D02*
X592807Y309554D01*
X592845Y312553D01*
X593858Y313540D01*
X596857Y313502D01*
X594036Y327534D02*
X594087Y331533D01*
X592062Y329559D02*
X596061Y329508D01*
X597111Y333494D02*
X597137Y335493D01*
X597124Y334493D01*
X591126Y334570D01*
X592113Y333557D01*
X597226Y342490D02*
X597175Y338492D01*
X593227Y342541D01*
X592228Y342554D01*
X591216Y341567D01*
X591190Y339568D01*
X592177Y338555D01*
X593253Y344540D02*
X597277Y346488D01*
X593304Y348538D01*
X423499Y353998D02*
X422499Y354998D01*
X420500D01*
X419500Y353998D01*
Y350000D01*
X420500Y349000D01*
X422499D01*
X423499Y350000D01*
Y351999D01*
X421499D01*
X425498Y349000D02*
Y354998D01*
X429497Y349000D01*
Y354998D01*
X431496D02*
Y349000D01*
X434495D01*
X435495Y350000D01*
Y353998D01*
X434495Y354998D01*
X431496D01*
X437494Y349000D02*
X439494D01*
X438494D01*
Y352999D01*
X437494D01*
X442493Y349000D02*
Y352999D01*
X445492D01*
X446491Y351999D01*
Y349000D01*
X478481Y351999D02*
X482480D01*
X480480Y353998D02*
Y350000D01*
X484479Y349000D02*
X486478D01*
X485479D01*
Y354998D01*
X484479Y353998D01*
X493476Y349000D02*
X489477D01*
X493476Y352999D01*
Y353998D01*
X492476Y354998D01*
X490477D01*
X489477Y353998D01*
X495475Y354998D02*
Y350999D01*
X497475Y349000D01*
X499474Y350999D01*
Y354998D01*
X332499Y356498D02*
X331499Y357498D01*
X329500D01*
X328500Y356498D01*
Y352500D01*
X329500Y351500D01*
X331499D01*
X332499Y352500D01*
Y354499D01*
X330499D01*
X334498Y351500D02*
Y357498D01*
X338497Y351500D01*
Y357498D01*
X340496D02*
Y351500D01*
X343495D01*
X344495Y352500D01*
Y356498D01*
X343495Y357498D01*
X340496D01*
X346494Y351500D02*
X348494D01*
X347494D01*
Y355499D01*
X346494D01*
X351493Y351500D02*
Y355499D01*
X354492D01*
X355491Y354499D01*
Y351500D01*
X387481Y354499D02*
X391480D01*
X389480Y356498D02*
Y352500D01*
X393479Y351500D02*
X395478D01*
X394479D01*
Y357498D01*
X393479Y356498D01*
X402476Y351500D02*
X398477D01*
X402476Y355499D01*
Y356498D01*
X401476Y357498D01*
X399477D01*
X398477Y356498D01*
X404475Y357498D02*
Y353499D01*
X406475Y351500D01*
X408474Y353499D01*
Y357498D01*
X513499Y356498D02*
X512499Y357498D01*
X510500D01*
X509500Y356498D01*
Y352500D01*
X510500Y351500D01*
X512499D01*
X513499Y352500D01*
Y354499D01*
X511499D01*
X515498Y351500D02*
Y357498D01*
X519497Y351500D01*
Y357498D01*
X521496D02*
Y351500D01*
X524495D01*
X525495Y352500D01*
Y356498D01*
X524495Y357498D01*
X521496D01*
X527494Y351500D02*
X529494D01*
X528494D01*
Y355499D01*
X527494D01*
X532493Y351500D02*
Y355499D01*
X535492D01*
X536491Y354499D01*
Y351500D01*
X568481Y354499D02*
X572480D01*
X570480Y356498D02*
Y352500D01*
X574479Y351500D02*
X576478D01*
X575479D01*
Y357498D01*
X574479Y356498D01*
X583476Y351500D02*
X579477D01*
X583476Y355499D01*
Y356498D01*
X582476Y357498D01*
X580477D01*
X579477Y356498D01*
X585475Y357498D02*
Y353499D01*
X587475Y351500D01*
X589474Y353499D01*
Y357498D01*
X592002Y193499D02*
X591002Y192499D01*
Y190500D01*
X592002Y189500D01*
X596000D01*
X597000Y190500D01*
Y192499D01*
X596000Y193499D01*
X594001D01*
Y191499D01*
X597000Y195498D02*
X591002D01*
X597000Y199497D01*
X591002D01*
Y201496D02*
X597000D01*
Y204495D01*
X596000Y205495D01*
X592002D01*
X591002Y204495D01*
Y201496D01*
X594001Y219490D02*
Y223489D01*
X592002Y221490D02*
X596000D01*
X591002Y229487D02*
Y225488D01*
X594001D01*
X593001Y227488D01*
Y228487D01*
X594001Y229487D01*
X596000D01*
X597000Y228487D01*
Y226488D01*
X596000Y225488D01*
X626502Y226000D02*
X632500D01*
Y228999D01*
X631500Y229999D01*
X627502D01*
X626502Y228999D01*
Y226000D01*
X632500Y231998D02*
X628501D01*
X626502Y233997D01*
X628501Y235997D01*
X632500D01*
X629501D01*
Y231998D01*
X626502Y237996D02*
Y241995D01*
Y239996D01*
X632500D01*
Y243994D02*
X628501D01*
X626502Y245993D01*
X628501Y247993D01*
X632500D01*
X629501D01*
Y243994D01*
X632500Y249992D02*
Y251992D01*
Y250992D01*
X626502D01*
X627502Y249992D01*
X626502Y260989D02*
X632500D01*
Y263988D01*
X631500Y264987D01*
X627502D01*
X626502Y263988D01*
Y260989D01*
X632500Y266987D02*
X628501D01*
X626502Y268986D01*
X628501Y270985D01*
X632500D01*
X629501D01*
Y266987D01*
X626502Y272985D02*
Y276983D01*
Y274984D01*
X632500D01*
Y278983D02*
X628501D01*
X626502Y280982D01*
X628501Y282982D01*
X632500D01*
X629501D01*
Y278983D01*
X632500Y288980D02*
Y284981D01*
X628501Y288980D01*
X627502D01*
X626502Y287980D01*
Y285981D01*
X627502Y284981D01*
X278000Y215498D02*
Y210500D01*
X279000Y209500D01*
X280999D01*
X281999Y210500D01*
Y215498D01*
X287997Y214498D02*
X286997Y215498D01*
X284998D01*
X283998Y214498D01*
Y213499D01*
X284998Y212499D01*
X286997D01*
X287997Y211499D01*
Y210500D01*
X286997Y209500D01*
X284998D01*
X283998Y210500D01*
X289996Y215498D02*
Y209500D01*
X292995D01*
X293995Y210500D01*
Y211499D01*
X292995Y212499D01*
X289996D01*
X292995D01*
X293995Y213499D01*
Y214498D01*
X292995Y215498D01*
X289996D01*
X414600Y382598D02*
Y376600D01*
X417599D01*
X418599Y377600D01*
Y378599D01*
X417599Y379599D01*
X414600D01*
X417599D01*
X418599Y380599D01*
Y381598D01*
X417599Y382598D01*
X414600D01*
X420598D02*
Y377600D01*
X421598Y376600D01*
X423597D01*
X424597Y377600D01*
Y382598D01*
X430595Y381598D02*
X429595Y382598D01*
X427596D01*
X426596Y381598D01*
Y377600D01*
X427596Y376600D01*
X429595D01*
X430595Y377600D01*
X432594Y382598D02*
Y376600D01*
Y378599D01*
X436593Y382598D01*
X433594Y379599D01*
X436593Y376600D01*
X448589D02*
X444590D01*
X448589Y380599D01*
Y381598D01*
X447589Y382598D01*
X445590D01*
X444590Y381598D01*
X599000Y237500D02*
Y243498D01*
X601999D01*
X602999Y242498D01*
Y240499D01*
X601999Y239499D01*
X599000D01*
X607997Y243498D02*
X605998D01*
X604998Y242498D01*
Y238500D01*
X605998Y237500D01*
X607997D01*
X608997Y238500D01*
Y242498D01*
X607997Y243498D01*
X610996D02*
Y237500D01*
X612995Y239499D01*
X614995Y237500D01*
Y243498D01*
X620993D02*
X616994D01*
Y237500D01*
X620993D01*
X616994Y240499D02*
X618994D01*
X622992Y237500D02*
Y243498D01*
X625991D01*
X626991Y242498D01*
Y240499D01*
X625991Y239499D01*
X622992D01*
X624992D02*
X626991Y237500D01*
X637987Y243498D02*
X635988D01*
X634988Y242498D01*
Y238500D01*
X635988Y237500D01*
X637987D01*
X638987Y238500D01*
Y242498D01*
X637987Y243498D01*
X640986D02*
Y238500D01*
X641986Y237500D01*
X643986D01*
X644985Y238500D01*
Y243498D01*
X646984D02*
X650983D01*
X648984D01*
Y237500D01*
X599000Y293498D02*
Y287500D01*
X601999D01*
X602999Y288500D01*
Y292498D01*
X601999Y293498D01*
X599000D01*
X604998Y287500D02*
Y291499D01*
X606997Y293498D01*
X608997Y291499D01*
Y287500D01*
Y290499D01*
X604998D01*
X610996Y293498D02*
X614995D01*
X612995D01*
Y287500D01*
X616994D02*
Y291499D01*
X618994Y293498D01*
X620993Y291499D01*
Y287500D01*
Y290499D01*
X616994D01*
X631989Y293498D02*
X629990D01*
X628990Y292498D01*
Y288500D01*
X629990Y287500D01*
X631989D01*
X632989Y288500D01*
Y292498D01*
X631989Y293498D01*
X634988D02*
Y288500D01*
X635988Y287500D01*
X637987D01*
X638987Y288500D01*
Y293498D01*
X640986D02*
X644985D01*
X642986D01*
Y287500D01*
X504600Y382598D02*
Y376600D01*
X507599D01*
X508599Y377600D01*
Y378599D01*
X507599Y379599D01*
X504600D01*
X507599D01*
X508599Y380599D01*
Y381598D01*
X507599Y382598D01*
X504600D01*
X510598D02*
Y377600D01*
X511598Y376600D01*
X513597D01*
X514597Y377600D01*
Y382598D01*
X520595Y381598D02*
X519595Y382598D01*
X517596D01*
X516596Y381598D01*
Y377600D01*
X517596Y376600D01*
X519595D01*
X520595Y377600D01*
X522594Y382598D02*
Y376600D01*
Y378599D01*
X526593Y382598D01*
X523594Y379599D01*
X526593Y376600D01*
X534590D02*
X536590D01*
X535590D01*
Y382598D01*
X534590Y381598D01*
X324600Y382598D02*
Y376600D01*
X327599D01*
X328599Y377600D01*
Y378599D01*
X327599Y379599D01*
X324600D01*
X327599D01*
X328599Y380599D01*
Y381598D01*
X327599Y382598D01*
X324600D01*
X330598D02*
Y377600D01*
X331598Y376600D01*
X333597D01*
X334597Y377600D01*
Y382598D01*
X340595Y381598D02*
X339595Y382598D01*
X337596D01*
X336596Y381598D01*
Y377600D01*
X337596Y376600D01*
X339595D01*
X340595Y377600D01*
X342594Y382598D02*
Y376600D01*
Y378599D01*
X346593Y382598D01*
X343594Y379599D01*
X346593Y376600D01*
X354590Y381598D02*
X355590Y382598D01*
X357589D01*
X358589Y381598D01*
Y380599D01*
X357589Y379599D01*
X356590D01*
X357589D01*
X358589Y378599D01*
Y377600D01*
X357589Y376600D01*
X355590D01*
X354590Y377600D01*
X428300Y499000D02*
Y504998D01*
X431299D01*
X432299Y503998D01*
Y501999D01*
X431299Y500999D01*
X428300D01*
X430299D02*
X432299Y499000D01*
X434298D02*
X436297D01*
X435298D01*
Y504998D01*
X434298Y503998D01*
X445295Y499000D02*
Y504998D01*
X448293D01*
X449293Y503998D01*
Y501999D01*
X448293Y500999D01*
X445295D01*
X447294D02*
X449293Y499000D01*
X340300Y498700D02*
Y504698D01*
X343299D01*
X344299Y503698D01*
Y501699D01*
X343299Y500699D01*
X340300D01*
X342299D02*
X344299Y498700D01*
X346298D02*
X348297D01*
X347298D01*
Y504698D01*
X346298Y503698D01*
X361293D02*
X360294Y504698D01*
X358294D01*
X357295Y503698D01*
Y499700D01*
X358294Y498700D01*
X360294D01*
X361293Y499700D01*
Y501699D01*
X359294D01*
X526300Y500700D02*
Y506698D01*
X529299D01*
X530299Y505698D01*
Y503699D01*
X529299Y502699D01*
X526300D01*
X528299D02*
X530299Y500700D01*
X532298D02*
X534297D01*
X533298D01*
Y506698D01*
X532298Y505698D01*
X543294Y506698D02*
Y500700D01*
X546293D01*
X547293Y501700D01*
Y502699D01*
X546293Y503699D01*
X543294D01*
X546293D01*
X547293Y504699D01*
Y505698D01*
X546293Y506698D01*
X543294D01*
X549293Y504699D02*
Y500700D01*
Y502699D01*
X550292Y503699D01*
X551292Y504699D01*
X552292D01*
X555291Y500700D02*
X557290D01*
X556290D01*
Y504699D01*
X555291D01*
X562288Y498701D02*
X563288D01*
X564288Y499700D01*
Y504699D01*
X561289D01*
X560289Y503699D01*
Y501700D01*
X561289Y500700D01*
X564288D01*
X566287Y506698D02*
Y500700D01*
Y503699D01*
X567287Y504699D01*
X569286D01*
X570286Y503699D01*
Y500700D01*
X573285Y505698D02*
Y504699D01*
X572285D01*
X574285D01*
X573285D01*
Y501700D01*
X574285Y500700D01*
X252300Y499000D02*
Y504998D01*
X255299D01*
X256299Y503998D01*
Y501999D01*
X255299Y500999D01*
X252300D01*
X254299D02*
X256299Y499000D01*
X258298D02*
X260297D01*
X259298D01*
Y504998D01*
X258298Y503998D01*
X269295Y504998D02*
Y499000D01*
X272293D01*
X273293Y500000D01*
Y500999D01*
X272293Y501999D01*
X269295D01*
X272293D01*
X273293Y502999D01*
Y503998D01*
X272293Y504998D01*
X269295D01*
X603599Y442298D02*
X602599Y443298D01*
X600600D01*
X599600Y442298D01*
Y441299D01*
X600600Y440299D01*
X602599D01*
X603599Y439299D01*
Y438300D01*
X602599Y437300D01*
X600600D01*
X599600Y438300D01*
X605598Y441299D02*
Y438300D01*
X606598Y437300D01*
X607597Y438300D01*
X608597Y437300D01*
X609597Y438300D01*
Y441299D01*
X611596Y437300D02*
X613595D01*
X612596D01*
Y441299D01*
X611596D01*
X617594Y442298D02*
Y441299D01*
X616595D01*
X618594D01*
X617594D01*
Y438300D01*
X618594Y437300D01*
X625592Y441299D02*
X622593D01*
X621593Y440299D01*
Y438300D01*
X622593Y437300D01*
X625592D01*
X627591Y443298D02*
Y437300D01*
Y440299D01*
X628591Y441299D01*
X630590D01*
X631590Y440299D01*
Y437300D01*
X639587D02*
X641586D01*
X640587D01*
Y443298D01*
X639587Y442298D01*
X603499Y392298D02*
X602499Y393298D01*
X600500D01*
X599500Y392298D01*
Y391299D01*
X600500Y390299D01*
X602499D01*
X603499Y389299D01*
Y388300D01*
X602499Y387300D01*
X600500D01*
X599500Y388300D01*
X605498Y391299D02*
Y388300D01*
X606498Y387300D01*
X607497Y388300D01*
X608497Y387300D01*
X609497Y388300D01*
Y391299D01*
X611496Y387300D02*
X613495D01*
X612496D01*
Y391299D01*
X611496D01*
X617494Y392298D02*
Y391299D01*
X616495D01*
X618494D01*
X617494D01*
Y388300D01*
X618494Y387300D01*
X625492Y391299D02*
X622493D01*
X621493Y390299D01*
Y388300D01*
X622493Y387300D01*
X625492D01*
X627491Y393298D02*
Y387300D01*
Y390299D01*
X628491Y391299D01*
X630490D01*
X631490Y390299D01*
Y387300D01*
X643486D02*
X639487D01*
X643486Y391299D01*
Y392298D01*
X642486Y393298D01*
X640487D01*
X639487Y392298D01*
X646485Y394298D02*
Y392298D01*
X645485Y391299D01*
X248500Y385698D02*
Y380700D01*
X249500Y379700D01*
X251499D01*
X252499Y380700D01*
Y385698D01*
X254498Y379700D02*
X256497D01*
X255498D01*
Y385698D01*
X254498Y384698D01*
X596100Y345298D02*
X598099D01*
X597100D01*
Y339300D01*
X596100D01*
X598099D01*
X601098D02*
Y343299D01*
X604097D01*
X605097Y342299D01*
Y339300D01*
X607096Y337301D02*
Y343299D01*
X610096D01*
X611095Y342299D01*
Y340300D01*
X610096Y339300D01*
X607096D01*
X613095Y343299D02*
Y340300D01*
X614094Y339300D01*
X617093D01*
Y343299D01*
X620092Y344298D02*
Y343299D01*
X619093D01*
X621092D01*
X620092D01*
Y340300D01*
X621092Y339300D01*
X630089D02*
X632088D01*
X631089D01*
Y345298D01*
X630089Y344298D01*
X639086Y339300D02*
X635087D01*
X639086Y343299D01*
Y344298D01*
X638086Y345298D01*
X636087D01*
X635087Y344298D01*
X641085Y345298D02*
Y341299D01*
X643085Y339300D01*
X645084Y341299D01*
Y345298D01*
D11*
X255800Y370000D02*
G03*
X255800Y370000I-2000J0D01*
G01*
D12*
X251520Y388535D02*
X319433D01*
X251520D02*
Y438732D01*
X319433D01*
Y388535D02*
Y438732D01*
X525520Y388221D02*
X593433D01*
X525520D02*
Y438417D01*
X593433D01*
Y388221D02*
Y438417D01*
X407433Y388221D02*
Y438417D01*
X339520D02*
X407433D01*
X339520Y388221D02*
Y438417D01*
Y388221D02*
X407433D01*
X495433Y388535D02*
Y438732D01*
X427520D02*
X495433D01*
X427520Y388535D02*
Y438732D01*
Y388535D02*
X495433D01*
D13*
X635685Y238110D02*
Y282204D01*
X600252D02*
X635685D01*
X600252Y238110D02*
Y282204D01*
Y238111D02*
X635685D01*
Y188110D02*
Y232204D01*
X600252D02*
X635685D01*
X600252Y188110D02*
Y232204D01*
Y188111D02*
X635685D01*
X600815Y387953D02*
Y432047D01*
Y387953D02*
X636248D01*
Y432047D01*
X600815Y432047D02*
X636248D01*
X600752Y337953D02*
X636185D01*
X600752Y337953D02*
Y382047D01*
X636185D01*
Y337953D02*
Y382047D01*
X597315Y287953D02*
Y332047D01*
Y287953D02*
X632748D01*
Y332047D01*
X597315Y332047D02*
X632748D01*
D14*
X299000Y198200D02*
Y219200D01*
X298000Y220200D02*
X299000Y219200D01*
X270000Y220200D02*
X298000D01*
X269000Y219200D02*
X270000Y220200D01*
X269000Y198200D02*
Y219200D01*
M02*
