G04*
G04 #@! TF.GenerationSoftware,Altium Limited,CircuitMaker,2.2.1 (6)*
G04*
G04 Layer_Physical_Order=1*
G04 Layer_Color=9806884*
%FSLAX25Y25*%
%MOIN*%
G70*
G04*
G04 #@! TF.SameCoordinates,E9A488FF-F020-425E-AD06-6B1E6BE10ADD*
G04*
G04*
G04 #@! TF.FilePolarity,Positive*
G04*
G01*
G75*
%ADD10C,0.01000*%
%ADD21C,0.01500*%
%ADD22C,0.04500*%
%ADD23C,0.02500*%
%ADD24C,0.10000*%
%ADD25C,0.03500*%
%ADD26R,0.07874X0.07874*%
%ADD27C,0.07874*%
%ADD28C,0.10000*%
%ADD29C,0.15000*%
%ADD30C,0.09842*%
%ADD31C,0.06500*%
G36*
X638471Y185529D02*
X454119D01*
X453949Y186029D01*
X453961Y186039D01*
X515464Y247541D01*
X610740D01*
X610753Y247510D01*
X611401Y246540D01*
X612225Y245716D01*
X613195Y245068D01*
X614273Y244621D01*
X615417Y244394D01*
X616583D01*
X617727Y244621D01*
X618805Y245068D01*
X619775Y245716D01*
X620599Y246540D01*
X621247Y247510D01*
X621694Y248588D01*
X621921Y249732D01*
Y250898D01*
X621694Y252042D01*
X621247Y253120D01*
X620599Y254089D01*
X619775Y254914D01*
X618805Y255562D01*
X617727Y256009D01*
X616583Y256236D01*
X615417D01*
X614273Y256009D01*
X613195Y255562D01*
X612225Y254914D01*
X611401Y254089D01*
X610753Y253120D01*
X610740Y253089D01*
X514315D01*
X513597Y252994D01*
X512928Y252717D01*
X512354Y252276D01*
X450851Y190774D01*
X440393D01*
X440360Y191274D01*
X440718Y191321D01*
X441387Y191598D01*
X441961Y192039D01*
X517149Y267226D01*
X610740D01*
X610753Y267195D01*
X611401Y266225D01*
X612225Y265401D01*
X613195Y264753D01*
X614273Y264306D01*
X615417Y264079D01*
X616583D01*
X617727Y264306D01*
X618805Y264753D01*
X619775Y265401D01*
X620599Y266225D01*
X621247Y267195D01*
X621694Y268273D01*
X621921Y269417D01*
Y270583D01*
X621694Y271727D01*
X621247Y272805D01*
X620599Y273775D01*
X619775Y274599D01*
X618805Y275247D01*
X617727Y275694D01*
X616583Y275921D01*
X615417D01*
X614273Y275694D01*
X613195Y275247D01*
X612225Y274599D01*
X611401Y273775D01*
X610753Y272805D01*
X610740Y272774D01*
X516000D01*
X515282Y272679D01*
X514613Y272402D01*
X514039Y271961D01*
X438851Y196774D01*
X279149D01*
X276774Y199149D01*
Y272000D01*
X276679Y272718D01*
X276402Y273387D01*
X275961Y273961D01*
X267961Y281961D01*
X267387Y282402D01*
X266718Y282679D01*
X266000Y282774D01*
X257237D01*
X256610Y283401D01*
X255640Y283960D01*
X254559Y284250D01*
X253440D01*
X252360Y283960D01*
X251390Y283401D01*
X250599Y282610D01*
X250040Y281640D01*
X249750Y280559D01*
Y279440D01*
X250040Y278360D01*
X250599Y277390D01*
X251390Y276599D01*
X252360Y276040D01*
X253440Y275750D01*
X254559D01*
X255640Y276040D01*
X256610Y276599D01*
X257237Y277226D01*
X264851D01*
X271226Y270851D01*
Y198000D01*
X271321Y197282D01*
X271598Y196613D01*
X272039Y196039D01*
X276039Y192039D01*
X276613Y191598D01*
X277282Y191321D01*
X277640Y191274D01*
X277607Y190774D01*
X273149D01*
X266774Y197149D01*
Y266000D01*
X266679Y266718D01*
X266402Y267387D01*
X265961Y267961D01*
X261961Y271961D01*
X261387Y272402D01*
X260718Y272679D01*
X260000Y272774D01*
X257237D01*
X256610Y273401D01*
X255640Y273960D01*
X254559Y274250D01*
X253440D01*
X252360Y273960D01*
X251390Y273401D01*
X250599Y272610D01*
X250040Y271640D01*
X249750Y270560D01*
Y269441D01*
X250040Y268360D01*
X250599Y267390D01*
X251390Y266599D01*
X252360Y266040D01*
X253440Y265750D01*
X254559D01*
X255640Y266040D01*
X256610Y266599D01*
X257237Y267226D01*
X258851D01*
X261226Y264851D01*
Y196000D01*
X261321Y195282D01*
X261598Y194613D01*
X262039Y194039D01*
X270039Y186039D01*
X270051Y186029D01*
X269881Y185529D01*
X245529D01*
Y430000D01*
Y434971D01*
X263794D01*
X263985Y434509D01*
X255238Y425762D01*
X254852Y425183D01*
X254716Y424500D01*
Y393500D01*
X254852Y392817D01*
X255238Y392238D01*
X263716Y383761D01*
Y296500D01*
X263851Y295817D01*
X264238Y295238D01*
X290738Y268738D01*
X291317Y268352D01*
X292000Y268216D01*
X292000Y268216D01*
X310123D01*
X310599Y267390D01*
X311390Y266599D01*
X312360Y266040D01*
X313440Y265750D01*
X314560D01*
X315640Y266040D01*
X316610Y266599D01*
X317401Y267390D01*
X317960Y268360D01*
X318250Y269441D01*
Y270560D01*
X317960Y271640D01*
X317401Y272610D01*
X316610Y273401D01*
X315640Y273960D01*
X314560Y274250D01*
X313440D01*
X312360Y273960D01*
X311390Y273401D01*
X310599Y272610D01*
X310123Y271784D01*
X292739D01*
X267284Y297239D01*
Y384500D01*
X267148Y385183D01*
X266762Y385762D01*
X258284Y394239D01*
Y423761D01*
X266739Y432216D01*
X272539D01*
X272730Y431754D01*
X269238Y428262D01*
X268851Y427683D01*
X268716Y427000D01*
Y425152D01*
X268713Y425151D01*
X268216Y425081D01*
X267346Y425951D01*
X266221Y426601D01*
X264965Y426937D01*
X264815D01*
Y422000D01*
Y417063D01*
X264965D01*
X266221Y417399D01*
X267346Y418049D01*
X268216Y418919D01*
X268713Y418849D01*
X268716Y418848D01*
Y405467D01*
X268713Y405466D01*
X268216Y405396D01*
X267346Y406265D01*
X266221Y406916D01*
X264965Y407252D01*
X263665D01*
X262409Y406916D01*
X261284Y406265D01*
X260364Y405346D01*
X259714Y404221D01*
X259378Y402965D01*
Y401665D01*
X259714Y400409D01*
X260364Y399284D01*
X261284Y398364D01*
X262409Y397714D01*
X263665Y397378D01*
X264965D01*
X266221Y397714D01*
X267346Y398364D01*
X268216Y399234D01*
X268713Y399164D01*
X268716Y399163D01*
Y323500D01*
X268851Y322817D01*
X269238Y322238D01*
X309997Y281480D01*
X309750Y280559D01*
Y279440D01*
X310040Y278360D01*
X310599Y277390D01*
X311390Y276599D01*
X312360Y276040D01*
X313440Y275750D01*
X314560D01*
X315640Y276040D01*
X316610Y276599D01*
X317401Y277390D01*
X317960Y278360D01*
X318250Y279440D01*
Y280559D01*
X317960Y281640D01*
X317401Y282610D01*
X316610Y283401D01*
X315640Y283960D01*
X314560Y284250D01*
X313440D01*
X312520Y284003D01*
X272284Y324239D01*
Y426261D01*
X275239Y429216D01*
X279539D01*
X279730Y428754D01*
X274738Y423762D01*
X274352Y423183D01*
X274216Y422500D01*
Y398941D01*
X274352Y398258D01*
X274738Y397679D01*
X280216Y392202D01*
Y322500D01*
X280351Y321817D01*
X280738Y321238D01*
X310148Y291828D01*
X310040Y291640D01*
X309750Y290560D01*
Y289440D01*
X310040Y288360D01*
X310599Y287390D01*
X311390Y286599D01*
X312360Y286040D01*
X313440Y285750D01*
X314560D01*
X315640Y286040D01*
X316610Y286599D01*
X317401Y287390D01*
X317960Y288360D01*
X318250Y289440D01*
Y290560D01*
X317960Y291640D01*
X317401Y292610D01*
X316610Y293401D01*
X315640Y293960D01*
X314560Y294250D01*
X313440D01*
X312914Y294109D01*
X283784Y323239D01*
Y392941D01*
X283648Y393624D01*
X283262Y394203D01*
X277784Y399680D01*
Y421761D01*
X278563Y422540D01*
X279063Y422332D01*
Y421350D01*
X279399Y420094D01*
X280049Y418969D01*
X280969Y418049D01*
X282094Y417399D01*
X282216Y417367D01*
Y416500D01*
X282351Y415817D01*
X282738Y415238D01*
X292716Y405261D01*
Y319500D01*
X292851Y318817D01*
X293238Y318238D01*
X309997Y301480D01*
X309750Y300559D01*
Y299441D01*
X310040Y298360D01*
X310599Y297390D01*
X311390Y296599D01*
X312360Y296040D01*
X313440Y295750D01*
X314560D01*
X315640Y296040D01*
X316610Y296599D01*
X317401Y297390D01*
X317960Y298360D01*
X318250Y299441D01*
Y300559D01*
X317960Y301640D01*
X317401Y302610D01*
X316610Y303401D01*
X315640Y303960D01*
X314560Y304250D01*
X313440D01*
X312520Y304003D01*
X296284Y320239D01*
Y406000D01*
X296148Y406683D01*
X295762Y407262D01*
X295762Y407262D01*
X286076Y416948D01*
X286070Y416963D01*
X286175Y417555D01*
X287031Y418049D01*
X287951Y418969D01*
X288601Y420094D01*
X288937Y421350D01*
Y422650D01*
X288601Y423906D01*
X287951Y425031D01*
X287266Y425716D01*
X287473Y426216D01*
X298075D01*
X298340Y426039D01*
X298748Y425957D01*
Y417063D01*
X305193D01*
X311206Y411050D01*
Y397950D01*
X297878Y384622D01*
X297380Y383878D01*
X297206Y383000D01*
Y334500D01*
X297380Y333622D01*
X297878Y332878D01*
X302378Y328378D01*
X303122Y327881D01*
X304000Y327706D01*
X310417D01*
X310599Y327390D01*
X311390Y326599D01*
X312360Y326040D01*
X313440Y325750D01*
X314560D01*
X315640Y326040D01*
X316610Y326599D01*
X317401Y327390D01*
X317960Y328360D01*
X318250Y329440D01*
Y330559D01*
X317960Y331640D01*
X317401Y332610D01*
X316610Y333401D01*
X315640Y333960D01*
X314560Y334250D01*
X313440D01*
X312360Y333960D01*
X311390Y333401D01*
X310599Y332610D01*
X310417Y332294D01*
X304950D01*
X301794Y335450D01*
Y348557D01*
X302294Y348606D01*
X302351Y348317D01*
X302738Y347738D01*
X306738Y343738D01*
X306738Y343738D01*
X307317Y343352D01*
X308000Y343216D01*
X310552D01*
X310743Y342754D01*
X310599Y342610D01*
X310040Y341640D01*
X309750Y340560D01*
Y339440D01*
X310040Y338360D01*
X310599Y337390D01*
X311390Y336599D01*
X312360Y336040D01*
X313440Y335750D01*
X314560D01*
X315640Y336040D01*
X316610Y336599D01*
X317401Y337390D01*
X317960Y338360D01*
X318250Y339440D01*
Y340560D01*
X317960Y341640D01*
X317730Y342040D01*
X318130Y342347D01*
X321716Y338761D01*
Y262739D01*
X320761Y261784D01*
X317877D01*
X317401Y262610D01*
X316610Y263401D01*
X315640Y263960D01*
X314560Y264250D01*
X313440D01*
X312360Y263960D01*
X311390Y263401D01*
X310599Y262610D01*
X310040Y261640D01*
X309750Y260560D01*
Y259440D01*
X310040Y258360D01*
X310599Y257390D01*
X311390Y256599D01*
X312360Y256040D01*
X313440Y255750D01*
X314560D01*
X315640Y256040D01*
X316610Y256599D01*
X317401Y257390D01*
X317877Y258216D01*
X321500D01*
X322183Y258351D01*
X322762Y258738D01*
X324762Y260738D01*
X324762Y260738D01*
X325149Y261317D01*
X325284Y262000D01*
X325284Y262000D01*
Y339500D01*
X325149Y340183D01*
X324762Y340762D01*
X324762Y340762D01*
X319262Y346262D01*
X318683Y346649D01*
X318000Y346784D01*
X317448D01*
X317257Y347246D01*
X317401Y347390D01*
X317960Y348360D01*
X318250Y349441D01*
Y349500D01*
X314000D01*
X309750D01*
Y349441D01*
X310040Y348360D01*
X310599Y347390D01*
X310743Y347246D01*
X310552Y346784D01*
X308739D01*
X305784Y349739D01*
Y362761D01*
X312239Y369216D01*
X316500D01*
X317183Y369352D01*
X317762Y369738D01*
X341239Y393216D01*
X345106D01*
X345155Y392716D01*
X344817Y392649D01*
X344238Y392262D01*
X344238Y392262D01*
X318761Y366784D01*
X311929D01*
X311929Y366784D01*
X311246Y366649D01*
X310667Y366262D01*
X310667Y366262D01*
X307738Y363333D01*
X307351Y362754D01*
X307216Y362071D01*
Y356500D01*
X307351Y355817D01*
X307738Y355238D01*
X309238Y353738D01*
X309817Y353351D01*
X310500Y353216D01*
X310552D01*
X310743Y352754D01*
X310599Y352610D01*
X310040Y351640D01*
X309750Y350559D01*
Y350500D01*
X314000D01*
X318250D01*
Y350559D01*
X317960Y351640D01*
X317401Y352610D01*
X317257Y352754D01*
X317448Y353216D01*
X321761D01*
X328716Y346261D01*
Y254239D01*
X326261Y251784D01*
X317877D01*
X317401Y252610D01*
X316610Y253401D01*
X315640Y253960D01*
X314560Y254250D01*
X313440D01*
X312360Y253960D01*
X311390Y253401D01*
X310599Y252610D01*
X310040Y251640D01*
X309750Y250559D01*
Y249441D01*
X310040Y248360D01*
X310599Y247390D01*
X311390Y246599D01*
X312360Y246040D01*
X313440Y245750D01*
X314560D01*
X315640Y246040D01*
X316610Y246599D01*
X317401Y247390D01*
X317877Y248216D01*
X327000D01*
X327683Y248352D01*
X328262Y248738D01*
X331722Y252199D01*
X331889Y252180D01*
X332222Y252027D01*
Y240000D01*
X332278Y239576D01*
X332334Y239152D01*
X332661Y238361D01*
X333182Y237682D01*
X363981Y206883D01*
X364660Y206362D01*
X365451Y206034D01*
X365875Y205979D01*
X366299Y205923D01*
X392773D01*
X393139Y205376D01*
X393974Y204540D01*
X394957Y203884D01*
X396049Y203431D01*
X397208Y203201D01*
X398390D01*
X399549Y203431D01*
X400641Y203884D01*
X401624Y204540D01*
X402460Y205376D01*
X403116Y206359D01*
X403569Y207451D01*
X403799Y208610D01*
Y209792D01*
X403569Y210951D01*
X403116Y212043D01*
X402460Y213026D01*
X401624Y213861D01*
X400641Y214518D01*
X399549Y214970D01*
X398390Y215201D01*
X397208D01*
X396049Y214970D01*
X394957Y214518D01*
X393974Y213861D01*
X393139Y213026D01*
X392773Y212479D01*
X367657D01*
X338778Y241358D01*
Y349500D01*
X338666Y350348D01*
X338339Y351139D01*
X337818Y351818D01*
X327318Y362318D01*
X326639Y362839D01*
X325848Y363166D01*
X325424Y363222D01*
X325000Y363278D01*
X320973D01*
X320820Y363611D01*
X320801Y363778D01*
X346239Y389216D01*
X589761D01*
X591451Y387526D01*
X591150Y387120D01*
X590307Y387570D01*
X589176Y387913D01*
X588000Y388029D01*
X530472D01*
X529296Y387913D01*
X528165Y387570D01*
X527123Y387013D01*
X526209Y386263D01*
X514315Y374369D01*
X502421Y386263D01*
X501507Y387013D01*
X500465Y387570D01*
X499334Y387913D01*
X498158Y388029D01*
X440472D01*
X439296Y387913D01*
X438165Y387570D01*
X437123Y387013D01*
X436209Y386263D01*
X424315Y374369D01*
X412421Y386263D01*
X411507Y387013D01*
X410465Y387570D01*
X409334Y387913D01*
X408157Y388029D01*
X350472D01*
X349296Y387913D01*
X348165Y387570D01*
X347123Y387013D01*
X346209Y386263D01*
X330052Y370106D01*
X329864Y369877D01*
X329655Y369667D01*
X329490Y369421D01*
X329302Y369192D01*
X329162Y368931D01*
X328998Y368685D01*
X328885Y368411D01*
X328745Y368150D01*
X328659Y367866D01*
X328545Y367593D01*
X328488Y367302D01*
X328402Y367019D01*
X328373Y366724D01*
X328315Y366434D01*
Y366137D01*
X328286Y365843D01*
X328315Y365548D01*
Y365252D01*
X328373Y364961D01*
X328402Y364666D01*
X328488Y364383D01*
X328545Y364092D01*
X328659Y363819D01*
X328745Y363535D01*
X328885Y363274D01*
X328998Y363000D01*
X329162Y362754D01*
X329302Y362493D01*
X329490Y362264D01*
X329655Y362018D01*
X329864Y361808D01*
X330052Y361579D01*
X330281Y361391D01*
X330490Y361182D01*
X330736Y361017D01*
X330965Y360830D01*
X331227Y360690D01*
X331473Y360525D01*
X331747Y360412D01*
X332008Y360272D01*
X332291Y360186D01*
X332565Y360073D01*
X332855Y360015D01*
X333139Y359929D01*
X333434Y359900D01*
X333724Y359842D01*
X334020D01*
X334315Y359813D01*
X334610Y359842D01*
X334906D01*
X335196Y359900D01*
X335491Y359929D01*
X335775Y360015D01*
X336065Y360073D01*
X336339Y360186D01*
X336622Y360272D01*
X336883Y360412D01*
X337157Y360525D01*
X337403Y360690D01*
X337665Y360830D01*
X337893Y361017D01*
X338140Y361182D01*
X338349Y361391D01*
X338578Y361579D01*
X352970Y375971D01*
X405660D01*
X420052Y361579D01*
X420281Y361391D01*
X420490Y361182D01*
X420737Y361017D01*
X420965Y360830D01*
X421227Y360690D01*
X421473Y360525D01*
X421746Y360412D01*
X422008Y360272D01*
X422291Y360186D01*
X422565Y360073D01*
X422855Y360015D01*
X423139Y359929D01*
X423434Y359900D01*
X423724Y359842D01*
X424020D01*
X424315Y359813D01*
X424610Y359842D01*
X424906D01*
X425196Y359900D01*
X425491Y359929D01*
X425775Y360015D01*
X426065Y360073D01*
X426339Y360186D01*
X426622Y360272D01*
X426883Y360412D01*
X427157Y360525D01*
X427403Y360690D01*
X427665Y360830D01*
X427893Y361017D01*
X428140Y361182D01*
X428349Y361391D01*
X428578Y361579D01*
X442970Y375971D01*
X495660D01*
X510052Y361579D01*
X510281Y361391D01*
X510490Y361182D01*
X510737Y361017D01*
X510965Y360830D01*
X511227Y360690D01*
X511473Y360525D01*
X511747Y360412D01*
X512008Y360272D01*
X512291Y360186D01*
X512565Y360073D01*
X512855Y360015D01*
X513139Y359929D01*
X513434Y359900D01*
X513724Y359842D01*
X514020D01*
X514315Y359813D01*
X514610Y359842D01*
X514906D01*
X515196Y359900D01*
X515491Y359929D01*
X515775Y360015D01*
X516065Y360073D01*
X516339Y360186D01*
X516622Y360272D01*
X516883Y360412D01*
X517157Y360525D01*
X517403Y360690D01*
X517664Y360830D01*
X517894Y361017D01*
X518140Y361182D01*
X518349Y361391D01*
X518578Y361579D01*
X532970Y375971D01*
X585503D01*
X587971Y373503D01*
Y342000D01*
X588087Y340824D01*
X588430Y339693D01*
X588987Y338650D01*
X589737Y337737D01*
X611737Y315737D01*
X612650Y314987D01*
X613693Y314430D01*
X614824Y314087D01*
X616000Y313971D01*
X616112Y313982D01*
X616417Y313921D01*
X617583D01*
X618727Y314149D01*
X619805Y314595D01*
X620775Y315243D01*
X621599Y316068D01*
X622247Y317038D01*
X622694Y318115D01*
X622921Y319259D01*
Y320426D01*
X622694Y321570D01*
X622247Y322647D01*
X621599Y323617D01*
X620775Y324442D01*
X619805Y325090D01*
X619176Y325350D01*
X600029Y344497D01*
Y376000D01*
X599913Y377176D01*
X599570Y378307D01*
X599120Y379150D01*
X599526Y379451D01*
X602716Y376261D01*
Y356000D01*
X602851Y355317D01*
X603238Y354738D01*
X609081Y348896D01*
X609660Y348509D01*
X610343Y348373D01*
X610830D01*
X611253Y347353D01*
X611901Y346383D01*
X612725Y345558D01*
X613695Y344910D01*
X614773Y344464D01*
X615917Y344236D01*
X617083D01*
X618227Y344464D01*
X619305Y344910D01*
X620275Y345558D01*
X621099Y346383D01*
X621747Y347353D01*
X622194Y348430D01*
X622421Y349574D01*
Y350741D01*
X622194Y351885D01*
X621747Y352962D01*
X621099Y353932D01*
X620275Y354757D01*
X619305Y355405D01*
X618227Y355851D01*
X617083Y356079D01*
X615917D01*
X614773Y355851D01*
X613695Y355405D01*
X612725Y354757D01*
X611901Y353932D01*
X611253Y352962D01*
X611076Y352535D01*
X610585Y352438D01*
X606284Y356739D01*
Y377000D01*
X606284Y377000D01*
X606148Y377683D01*
X605762Y378262D01*
X591762Y392262D01*
X591183Y392649D01*
X590845Y392716D01*
X590894Y393216D01*
X595657D01*
X596340Y393352D01*
X596919Y393738D01*
X617752Y414572D01*
X618773Y414149D01*
X619917Y413921D01*
X621083D01*
X622227Y414149D01*
X623305Y414595D01*
X624275Y415243D01*
X625099Y416068D01*
X625747Y417038D01*
X626194Y418115D01*
X626421Y419259D01*
Y420426D01*
X626194Y421570D01*
X625747Y422647D01*
X625099Y423617D01*
X624275Y424442D01*
X623305Y425090D01*
X622227Y425536D01*
X621083Y425764D01*
X619917D01*
X618773Y425536D01*
X617695Y425090D01*
X616725Y424442D01*
X615901Y423617D01*
X615253Y422647D01*
X614806Y421570D01*
X614579Y420426D01*
Y419259D01*
X614806Y418115D01*
X615229Y417095D01*
X594918Y396784D01*
X579227D01*
X579161Y397284D01*
X579591Y397399D01*
X580716Y398049D01*
X581636Y398969D01*
X582286Y400094D01*
X582622Y401350D01*
Y402650D01*
X582286Y403906D01*
X581636Y405031D01*
X580716Y405951D01*
X579591Y406601D01*
X578335Y406937D01*
X577035D01*
X575779Y406601D01*
X574654Y405951D01*
X573735Y405031D01*
X573084Y403906D01*
X572748Y402650D01*
Y401350D01*
X573084Y400094D01*
X573735Y398969D01*
X574654Y398049D01*
X575779Y397399D01*
X576209Y397284D01*
X576143Y396784D01*
X559542D01*
X559476Y397284D01*
X559906Y397399D01*
X561031Y398049D01*
X561951Y398969D01*
X562601Y400094D01*
X562937Y401350D01*
Y402650D01*
X562601Y403906D01*
X561951Y405031D01*
X561031Y405951D01*
X559906Y406601D01*
X558650Y406937D01*
X557350D01*
X556094Y406601D01*
X554969Y405951D01*
X554049Y405031D01*
X553399Y403906D01*
X553063Y402650D01*
Y401350D01*
X553399Y400094D01*
X554049Y398969D01*
X554969Y398049D01*
X556094Y397399D01*
X556524Y397284D01*
X556458Y396784D01*
X539857D01*
X539791Y397284D01*
X540221Y397399D01*
X541346Y398049D01*
X542266Y398969D01*
X542915Y400094D01*
X543252Y401350D01*
Y402650D01*
X542915Y403906D01*
X542266Y405031D01*
X541346Y405951D01*
X540221Y406601D01*
X538965Y406937D01*
X537665D01*
X536409Y406601D01*
X535284Y405951D01*
X534364Y405031D01*
X533714Y403906D01*
X533378Y402650D01*
Y401350D01*
X533714Y400094D01*
X534364Y398969D01*
X535284Y398049D01*
X536409Y397399D01*
X536839Y397284D01*
X536773Y396784D01*
X393227D01*
X393161Y397284D01*
X393591Y397399D01*
X394716Y398049D01*
X395636Y398969D01*
X396286Y400094D01*
X396622Y401350D01*
Y402650D01*
X396286Y403906D01*
X395636Y405031D01*
X394716Y405951D01*
X393591Y406601D01*
X392335Y406937D01*
X391035D01*
X389779Y406601D01*
X388654Y405951D01*
X387735Y405031D01*
X387085Y403906D01*
X386748Y402650D01*
Y401350D01*
X387085Y400094D01*
X387735Y398969D01*
X388654Y398049D01*
X389779Y397399D01*
X390209Y397284D01*
X390143Y396784D01*
X373542D01*
X373476Y397284D01*
X373906Y397399D01*
X375031Y398049D01*
X375951Y398969D01*
X376601Y400094D01*
X376937Y401350D01*
Y402650D01*
X376601Y403906D01*
X375951Y405031D01*
X375031Y405951D01*
X373906Y406601D01*
X372650Y406937D01*
X371350D01*
X370094Y406601D01*
X368969Y405951D01*
X368049Y405031D01*
X367399Y403906D01*
X367063Y402650D01*
Y401350D01*
X367399Y400094D01*
X368049Y398969D01*
X368969Y398049D01*
X370094Y397399D01*
X370524Y397284D01*
X370458Y396784D01*
X353857D01*
X353791Y397284D01*
X354221Y397399D01*
X355346Y398049D01*
X356265Y398969D01*
X356915Y400094D01*
X357252Y401350D01*
Y402650D01*
X356915Y403906D01*
X356265Y405031D01*
X355346Y405951D01*
X354221Y406601D01*
X352965Y406937D01*
X351665D01*
X350409Y406601D01*
X349284Y405951D01*
X348364Y405031D01*
X347714Y403906D01*
X347378Y402650D01*
Y401350D01*
X347714Y400094D01*
X348364Y398969D01*
X349284Y398049D01*
X350409Y397399D01*
X350839Y397284D01*
X350773Y396784D01*
X340500D01*
X340500Y396784D01*
X339817Y396649D01*
X339238Y396262D01*
X339238Y396262D01*
X315761Y372784D01*
X311500D01*
X310817Y372649D01*
X310238Y372262D01*
X302738Y364762D01*
X302351Y364183D01*
X302294Y363894D01*
X301794Y363943D01*
Y382050D01*
X315122Y395378D01*
X315619Y396122D01*
X315794Y397000D01*
Y409706D01*
X568000D01*
X568878Y409881D01*
X569622Y410378D01*
X575992Y416748D01*
X582622D01*
Y426622D01*
X572748D01*
Y419992D01*
X567050Y414294D01*
X475877D01*
X475685Y414756D01*
X477992Y417063D01*
X484622D01*
Y426937D01*
X474748D01*
Y420307D01*
X468735Y414294D01*
X388192D01*
X388000Y414756D01*
X389992Y416748D01*
X396622D01*
Y426622D01*
X386748D01*
Y419992D01*
X381050Y414294D01*
X314450D01*
X308622Y420122D01*
Y425903D01*
X348844D01*
X349051Y425403D01*
X348364Y424716D01*
X347714Y423591D01*
X347378Y422335D01*
Y422185D01*
X352315D01*
Y421685D01*
X352815D01*
Y416748D01*
X352965D01*
X354221Y417085D01*
X355346Y417734D01*
X356265Y418654D01*
X356915Y419779D01*
X357252Y421035D01*
Y421614D01*
X357714Y421805D01*
X359096Y420423D01*
X359096Y420423D01*
X359675Y420037D01*
X360358Y419901D01*
X360358Y419901D01*
X367367D01*
X367399Y419779D01*
X368049Y418654D01*
X368969Y417734D01*
X370094Y417085D01*
X371350Y416748D01*
X372650D01*
X373906Y417085D01*
X375031Y417734D01*
X375951Y418654D01*
X376601Y419779D01*
X376937Y421035D01*
Y422335D01*
X376601Y423591D01*
X375951Y424716D01*
X375031Y425636D01*
X373906Y426286D01*
X372650Y426622D01*
X371350D01*
X370094Y426286D01*
X368969Y425636D01*
X368049Y424716D01*
X367399Y423591D01*
X367367Y423469D01*
X361097D01*
X355850Y428716D01*
X356057Y429216D01*
X439261D01*
X441092Y427384D01*
X440833Y426937D01*
X440815D01*
Y422500D01*
X445252D01*
Y422518D01*
X445699Y422778D01*
X447738Y420738D01*
X448317Y420352D01*
X449000Y420216D01*
X455367D01*
X455399Y420094D01*
X456049Y418969D01*
X456969Y418049D01*
X458094Y417399D01*
X459350Y417063D01*
X460650D01*
X461906Y417399D01*
X463031Y418049D01*
X463951Y418969D01*
X464601Y420094D01*
X464937Y421350D01*
Y422650D01*
X464601Y423906D01*
X463951Y425031D01*
X463031Y425951D01*
X461906Y426601D01*
X460650Y426937D01*
X459350D01*
X458094Y426601D01*
X456969Y425951D01*
X456049Y425031D01*
X455399Y423906D01*
X455367Y423784D01*
X449739D01*
X444022Y429501D01*
X444234Y429933D01*
X444265Y429966D01*
X547196D01*
X553462Y423699D01*
X553399Y423591D01*
X553063Y422335D01*
Y421035D01*
X553399Y419779D01*
X554049Y418654D01*
X554969Y417734D01*
X556094Y417085D01*
X557350Y416748D01*
X558650D01*
X559906Y417085D01*
X561031Y417734D01*
X561951Y418654D01*
X562601Y419779D01*
X562937Y421035D01*
Y422335D01*
X562601Y423591D01*
X561951Y424716D01*
X561031Y425636D01*
X559906Y426286D01*
X558650Y426622D01*
X557350D01*
X556094Y426286D01*
X555986Y426223D01*
X549197Y433012D01*
X548618Y433398D01*
X547935Y433534D01*
X444989D01*
X444015Y434509D01*
X444206Y434971D01*
X638471D01*
Y185529D01*
D02*
G37*
%LPC*%
G36*
X439815Y426937D02*
X439665D01*
X438409Y426601D01*
X437284Y425951D01*
X436364Y425031D01*
X435714Y423906D01*
X435378Y422650D01*
Y422500D01*
X439815D01*
Y426937D01*
D02*
G37*
G36*
X263815D02*
X263665D01*
X262409Y426601D01*
X261284Y425951D01*
X260364Y425031D01*
X259714Y423906D01*
X259378Y422650D01*
Y422500D01*
X263815D01*
Y426937D01*
D02*
G37*
G36*
X538965Y426622D02*
X538815D01*
Y422185D01*
X543252D01*
Y422335D01*
X542915Y423591D01*
X542266Y424716D01*
X541346Y425636D01*
X540221Y426286D01*
X538965Y426622D01*
D02*
G37*
G36*
X537815D02*
X537665D01*
X536409Y426286D01*
X535284Y425636D01*
X534364Y424716D01*
X533714Y423591D01*
X533378Y422335D01*
Y422185D01*
X537815D01*
Y426622D01*
D02*
G37*
G36*
X445252Y421500D02*
X440815D01*
Y417063D01*
X440965D01*
X442221Y417399D01*
X443346Y418049D01*
X444266Y418969D01*
X444915Y420094D01*
X445252Y421350D01*
Y421500D01*
D02*
G37*
G36*
X439815D02*
X435378D01*
Y421350D01*
X435714Y420094D01*
X436364Y418969D01*
X437284Y418049D01*
X438409Y417399D01*
X439665Y417063D01*
X439815D01*
Y421500D01*
D02*
G37*
G36*
X263815D02*
X259378D01*
Y421350D01*
X259714Y420094D01*
X260364Y418969D01*
X261284Y418049D01*
X262409Y417399D01*
X263665Y417063D01*
X263815D01*
Y421500D01*
D02*
G37*
G36*
X543252Y421185D02*
X538815D01*
Y416748D01*
X538965D01*
X540221Y417085D01*
X541346Y417734D01*
X542266Y418654D01*
X542915Y419779D01*
X543252Y421035D01*
Y421185D01*
D02*
G37*
G36*
X537815D02*
X533378D01*
Y421035D01*
X533714Y419779D01*
X534364Y418654D01*
X535284Y417734D01*
X536409Y417085D01*
X537665Y416748D01*
X537815D01*
Y421185D01*
D02*
G37*
G36*
X351815D02*
X347378D01*
Y421035D01*
X347714Y419779D01*
X348364Y418654D01*
X349284Y417734D01*
X350409Y417085D01*
X351665Y416748D01*
X351815D01*
Y421185D01*
D02*
G37*
G36*
X621083Y406079D02*
X621000D01*
Y400658D01*
X626421D01*
Y400741D01*
X626194Y401885D01*
X625747Y402962D01*
X625099Y403932D01*
X624275Y404757D01*
X623305Y405405D01*
X622227Y405851D01*
X621083Y406079D01*
D02*
G37*
G36*
X620000D02*
X619917D01*
X618773Y405851D01*
X617695Y405405D01*
X616725Y404757D01*
X615901Y403932D01*
X615253Y402962D01*
X614806Y401885D01*
X614579Y400741D01*
Y400658D01*
X620000D01*
Y406079D01*
D02*
G37*
G36*
X480335Y407252D02*
X479035D01*
X477779Y406916D01*
X476654Y406265D01*
X475735Y405346D01*
X475084Y404221D01*
X474748Y402965D01*
Y401665D01*
X475084Y400409D01*
X475735Y399284D01*
X476654Y398364D01*
X477779Y397714D01*
X479035Y397378D01*
X480335D01*
X481591Y397714D01*
X482716Y398364D01*
X483636Y399284D01*
X484286Y400409D01*
X484622Y401665D01*
Y402965D01*
X484286Y404221D01*
X483636Y405346D01*
X482716Y406265D01*
X481591Y406916D01*
X480335Y407252D01*
D02*
G37*
G36*
X460650D02*
X459350D01*
X458094Y406916D01*
X456969Y406265D01*
X456049Y405346D01*
X455399Y404221D01*
X455063Y402965D01*
Y401665D01*
X455399Y400409D01*
X456049Y399284D01*
X456969Y398364D01*
X458094Y397714D01*
X459350Y397378D01*
X460650D01*
X461906Y397714D01*
X463031Y398364D01*
X463951Y399284D01*
X464601Y400409D01*
X464937Y401665D01*
Y402965D01*
X464601Y404221D01*
X463951Y405346D01*
X463031Y406265D01*
X461906Y406916D01*
X460650Y407252D01*
D02*
G37*
G36*
X440965D02*
X439665D01*
X438409Y406916D01*
X437284Y406265D01*
X436364Y405346D01*
X435714Y404221D01*
X435378Y402965D01*
Y401665D01*
X435714Y400409D01*
X436364Y399284D01*
X437284Y398364D01*
X438409Y397714D01*
X439665Y397378D01*
X440965D01*
X442221Y397714D01*
X443346Y398364D01*
X444266Y399284D01*
X444915Y400409D01*
X445252Y401665D01*
Y402965D01*
X444915Y404221D01*
X444266Y405346D01*
X443346Y406265D01*
X442221Y406916D01*
X440965Y407252D01*
D02*
G37*
G36*
X304335D02*
X303035D01*
X301779Y406916D01*
X300654Y406265D01*
X299734Y405346D01*
X299084Y404221D01*
X298748Y402965D01*
Y401665D01*
X299084Y400409D01*
X299734Y399284D01*
X300654Y398364D01*
X301779Y397714D01*
X303035Y397378D01*
X304335D01*
X305591Y397714D01*
X306716Y398364D01*
X307636Y399284D01*
X308286Y400409D01*
X308622Y401665D01*
Y402965D01*
X308286Y404221D01*
X307636Y405346D01*
X306716Y406265D01*
X305591Y406916D01*
X304335Y407252D01*
D02*
G37*
G36*
X284650D02*
X283350D01*
X282094Y406916D01*
X280969Y406265D01*
X280049Y405346D01*
X279399Y404221D01*
X279063Y402965D01*
Y401665D01*
X279399Y400409D01*
X280049Y399284D01*
X280969Y398364D01*
X282094Y397714D01*
X283350Y397378D01*
X284650D01*
X285906Y397714D01*
X287031Y398364D01*
X287951Y399284D01*
X288601Y400409D01*
X288937Y401665D01*
Y402965D01*
X288601Y404221D01*
X287951Y405346D01*
X287031Y406265D01*
X285906Y406916D01*
X284650Y407252D01*
D02*
G37*
G36*
X626421Y399658D02*
X621000D01*
Y394236D01*
X621083D01*
X622227Y394464D01*
X623305Y394910D01*
X624275Y395558D01*
X625099Y396383D01*
X625747Y397353D01*
X626194Y398430D01*
X626421Y399574D01*
Y399658D01*
D02*
G37*
G36*
X620000D02*
X614579D01*
Y399574D01*
X614806Y398430D01*
X615253Y397353D01*
X615901Y396383D01*
X616725Y395558D01*
X617695Y394910D01*
X618773Y394464D01*
X619917Y394236D01*
X620000D01*
Y399658D01*
D02*
G37*
G36*
X578636Y374244D02*
X576962D01*
X575320Y373918D01*
X573773Y373277D01*
X572381Y372346D01*
X571807Y371773D01*
X539744D01*
X539744Y371773D01*
X538568Y371657D01*
X537437Y371314D01*
X536395Y370757D01*
X535481Y370007D01*
X519503Y354029D01*
X502497D01*
X495122Y361404D01*
X495332Y361718D01*
X495973Y363265D01*
X496299Y364907D01*
Y366581D01*
X495973Y368224D01*
X495332Y369770D01*
X494402Y371163D01*
X493218Y372346D01*
X491825Y373277D01*
X490279Y373918D01*
X488636Y374244D01*
X486962D01*
X485320Y373918D01*
X483773Y373277D01*
X482381Y372346D01*
X481807Y371773D01*
X453744D01*
X452568Y371657D01*
X451437Y371314D01*
X450394Y370757D01*
X449481Y370007D01*
X435503Y356029D01*
X408497D01*
X404301Y360225D01*
X404402Y360326D01*
X405332Y361718D01*
X405973Y363265D01*
X406299Y364907D01*
Y366581D01*
X405973Y368224D01*
X405332Y369770D01*
X404402Y371163D01*
X403218Y372346D01*
X401826Y373277D01*
X400279Y373918D01*
X398636Y374244D01*
X396962D01*
X395320Y373918D01*
X393773Y373277D01*
X392381Y372346D01*
X391197Y371163D01*
X390267Y369770D01*
X389626Y368224D01*
X389299Y366581D01*
Y364907D01*
X389626Y363265D01*
X390267Y361718D01*
X391197Y360326D01*
X391770Y359752D01*
Y358201D01*
X391886Y357025D01*
X392229Y355894D01*
X392786Y354851D01*
X393536Y353938D01*
X401737Y345737D01*
X402650Y344987D01*
X403693Y344430D01*
X404824Y344087D01*
X406000Y343971D01*
X438000D01*
X439176Y344087D01*
X440307Y344430D01*
X441350Y344987D01*
X442263Y345737D01*
X456241Y359715D01*
X481807D01*
X481819Y359703D01*
X481886Y359025D01*
X482229Y357894D01*
X482786Y356851D01*
X483536Y355938D01*
X495737Y343737D01*
X496651Y342987D01*
X497693Y342430D01*
X498824Y342087D01*
X500000Y341971D01*
X522000D01*
X523176Y342087D01*
X524307Y342430D01*
X525350Y342987D01*
X526263Y343737D01*
X542241Y359715D01*
X571770D01*
Y318201D01*
X571886Y317025D01*
X572229Y315894D01*
X572786Y314851D01*
X573536Y313938D01*
X591422Y296052D01*
X592336Y295302D01*
X593378Y294745D01*
X594509Y294402D01*
X595685Y294286D01*
X616000D01*
X616112Y294297D01*
X616417Y294236D01*
X617583D01*
X618727Y294464D01*
X619805Y294910D01*
X620775Y295558D01*
X621599Y296383D01*
X622247Y297353D01*
X622694Y298430D01*
X622921Y299574D01*
Y300741D01*
X622694Y301885D01*
X622247Y302962D01*
X621599Y303932D01*
X620775Y304757D01*
X619805Y305405D01*
X618727Y305851D01*
X617832Y306029D01*
X617176Y306228D01*
X616000Y306344D01*
X598182D01*
X583828Y320698D01*
Y359752D01*
X584402Y360326D01*
X585332Y361718D01*
X585973Y363265D01*
X586299Y364907D01*
Y366581D01*
X585973Y368224D01*
X585332Y369770D01*
X584402Y371163D01*
X583218Y372346D01*
X581825Y373277D01*
X580279Y373918D01*
X578636Y374244D01*
D02*
G37*
G36*
X617083Y375764D02*
X617000D01*
Y370342D01*
X622421D01*
Y370426D01*
X622194Y371570D01*
X621747Y372647D01*
X621099Y373617D01*
X620275Y374442D01*
X619305Y375090D01*
X618227Y375536D01*
X617083Y375764D01*
D02*
G37*
G36*
X616000D02*
X615917D01*
X614773Y375536D01*
X613695Y375090D01*
X612725Y374442D01*
X611901Y373617D01*
X611253Y372647D01*
X610806Y371570D01*
X610579Y370426D01*
Y370342D01*
X616000D01*
Y375764D01*
D02*
G37*
G36*
X622421Y369342D02*
X617000D01*
Y363921D01*
X617083D01*
X618227Y364149D01*
X619305Y364595D01*
X620275Y365243D01*
X621099Y366068D01*
X621747Y367038D01*
X622194Y368115D01*
X622421Y369259D01*
Y369342D01*
D02*
G37*
G36*
X616000D02*
X610579D01*
Y369259D01*
X610806Y368115D01*
X611253Y367038D01*
X611901Y366068D01*
X612725Y365243D01*
X613695Y364595D01*
X614773Y364149D01*
X615917Y363921D01*
X616000D01*
Y369342D01*
D02*
G37*
G36*
X254559Y364250D02*
X253440D01*
X252360Y363960D01*
X251390Y363401D01*
X250599Y362610D01*
X250040Y361640D01*
X249750Y360560D01*
Y359440D01*
X250040Y358360D01*
X250599Y357390D01*
X251390Y356599D01*
X252360Y356040D01*
X253440Y355750D01*
X254559D01*
X255640Y356040D01*
X256610Y356599D01*
X257401Y357390D01*
X257960Y358360D01*
X258250Y359440D01*
Y360560D01*
X257960Y361640D01*
X257401Y362610D01*
X256610Y363401D01*
X255640Y363960D01*
X254559Y364250D01*
D02*
G37*
G36*
Y354250D02*
X253440D01*
X252360Y353960D01*
X251390Y353401D01*
X250599Y352610D01*
X250040Y351640D01*
X249750Y350559D01*
Y349441D01*
X250040Y348360D01*
X250599Y347390D01*
X251390Y346599D01*
X252360Y346040D01*
X253440Y345750D01*
X254559D01*
X255640Y346040D01*
X256610Y346599D01*
X257401Y347390D01*
X257960Y348360D01*
X258250Y349441D01*
Y350559D01*
X257960Y351640D01*
X257401Y352610D01*
X256610Y353401D01*
X255640Y353960D01*
X254559Y354250D01*
D02*
G37*
G36*
Y344250D02*
X253440D01*
X252360Y343960D01*
X251390Y343401D01*
X250599Y342610D01*
X250040Y341640D01*
X249750Y340560D01*
Y339440D01*
X250040Y338360D01*
X250599Y337390D01*
X251390Y336599D01*
X252360Y336040D01*
X253440Y335750D01*
X254559D01*
X255640Y336040D01*
X256610Y336599D01*
X257401Y337390D01*
X257960Y338360D01*
X258250Y339440D01*
Y340560D01*
X257960Y341640D01*
X257401Y342610D01*
X256610Y343401D01*
X255640Y343960D01*
X254559Y344250D01*
D02*
G37*
G36*
Y334250D02*
X254500D01*
Y330500D01*
X258250D01*
Y330559D01*
X257960Y331640D01*
X257401Y332610D01*
X256610Y333401D01*
X255640Y333960D01*
X254559Y334250D01*
D02*
G37*
G36*
X253500D02*
X253440D01*
X252360Y333960D01*
X251390Y333401D01*
X250599Y332610D01*
X250040Y331640D01*
X249750Y330559D01*
Y330500D01*
X253500D01*
Y334250D01*
D02*
G37*
G36*
X258250Y329500D02*
X254500D01*
Y325750D01*
X254559D01*
X255640Y326040D01*
X256610Y326599D01*
X257401Y327390D01*
X257960Y328360D01*
X258250Y329440D01*
Y329500D01*
D02*
G37*
G36*
X253500D02*
X249750D01*
Y329440D01*
X250040Y328360D01*
X250599Y327390D01*
X251390Y326599D01*
X252360Y326040D01*
X253440Y325750D01*
X253500D01*
Y329500D01*
D02*
G37*
G36*
X314560Y324250D02*
X313440D01*
X312360Y323960D01*
X311390Y323401D01*
X310599Y322610D01*
X310040Y321640D01*
X309750Y320560D01*
Y319441D01*
X310040Y318360D01*
X310599Y317390D01*
X311390Y316599D01*
X312360Y316040D01*
X313440Y315750D01*
X314560D01*
X315640Y316040D01*
X316610Y316599D01*
X317401Y317390D01*
X317960Y318360D01*
X318250Y319441D01*
Y320560D01*
X317960Y321640D01*
X317401Y322610D01*
X316610Y323401D01*
X315640Y323960D01*
X314560Y324250D01*
D02*
G37*
G36*
X254559D02*
X253440D01*
X252360Y323960D01*
X251390Y323401D01*
X250599Y322610D01*
X250040Y321640D01*
X249750Y320560D01*
Y319441D01*
X250040Y318360D01*
X250599Y317390D01*
X251390Y316599D01*
X252360Y316040D01*
X253440Y315750D01*
X254559D01*
X255640Y316040D01*
X256610Y316599D01*
X257401Y317390D01*
X257960Y318360D01*
X258250Y319441D01*
Y320560D01*
X257960Y321640D01*
X257401Y322610D01*
X256610Y323401D01*
X255640Y323960D01*
X254559Y324250D01*
D02*
G37*
G36*
X314560Y314250D02*
X313440D01*
X312360Y313960D01*
X311390Y313401D01*
X310599Y312610D01*
X310040Y311640D01*
X309750Y310560D01*
Y309440D01*
X310040Y308360D01*
X310599Y307390D01*
X311390Y306599D01*
X312360Y306040D01*
X313440Y305750D01*
X314560D01*
X315640Y306040D01*
X316610Y306599D01*
X317401Y307390D01*
X317960Y308360D01*
X318250Y309440D01*
Y310560D01*
X317960Y311640D01*
X317401Y312610D01*
X316610Y313401D01*
X315640Y313960D01*
X314560Y314250D01*
D02*
G37*
G36*
X254559D02*
X253440D01*
X252360Y313960D01*
X251390Y313401D01*
X250599Y312610D01*
X250040Y311640D01*
X249750Y310560D01*
Y309440D01*
X250040Y308360D01*
X250599Y307390D01*
X251390Y306599D01*
X252360Y306040D01*
X253440Y305750D01*
X254559D01*
X255640Y306040D01*
X256610Y306599D01*
X257401Y307390D01*
X257960Y308360D01*
X258250Y309440D01*
Y310560D01*
X257960Y311640D01*
X257401Y312610D01*
X256610Y313401D01*
X255640Y313960D01*
X254559Y314250D01*
D02*
G37*
G36*
Y304250D02*
X253440D01*
X252360Y303960D01*
X251390Y303401D01*
X250599Y302610D01*
X250040Y301640D01*
X249750Y300559D01*
Y299441D01*
X250040Y298360D01*
X250599Y297390D01*
X251390Y296599D01*
X252360Y296040D01*
X253440Y295750D01*
X254559D01*
X255640Y296040D01*
X256610Y296599D01*
X257401Y297390D01*
X257960Y298360D01*
X258250Y299441D01*
Y300559D01*
X257960Y301640D01*
X257401Y302610D01*
X256610Y303401D01*
X255640Y303960D01*
X254559Y304250D01*
D02*
G37*
G36*
Y294250D02*
X253440D01*
X252360Y293960D01*
X251390Y293401D01*
X250599Y292610D01*
X250040Y291640D01*
X249750Y290560D01*
Y289440D01*
X250040Y288360D01*
X250599Y287390D01*
X251390Y286599D01*
X252360Y286040D01*
X253440Y285750D01*
X254559D01*
X255640Y286040D01*
X256610Y286599D01*
X257401Y287390D01*
X257960Y288360D01*
X258250Y289440D01*
Y290560D01*
X257960Y291640D01*
X257401Y292610D01*
X256610Y293401D01*
X255640Y293960D01*
X254559Y294250D01*
D02*
G37*
G36*
Y264250D02*
X253440D01*
X252360Y263960D01*
X251390Y263401D01*
X250599Y262610D01*
X250040Y261640D01*
X249750Y260560D01*
Y259440D01*
X250040Y258360D01*
X250599Y257390D01*
X251390Y256599D01*
X252360Y256040D01*
X253440Y255750D01*
X254559D01*
X255640Y256040D01*
X256610Y256599D01*
X257401Y257390D01*
X257960Y258360D01*
X258250Y259440D01*
Y260560D01*
X257960Y261640D01*
X257401Y262610D01*
X256610Y263401D01*
X255640Y263960D01*
X254559Y264250D01*
D02*
G37*
G36*
Y254250D02*
X253440D01*
X252360Y253960D01*
X251390Y253401D01*
X250599Y252610D01*
X250040Y251640D01*
X249750Y250559D01*
Y249441D01*
X250040Y248360D01*
X250599Y247390D01*
X251390Y246599D01*
X252360Y246040D01*
X253440Y245750D01*
X254559D01*
X255640Y246040D01*
X256610Y246599D01*
X257401Y247390D01*
X257960Y248360D01*
X258250Y249441D01*
Y250559D01*
X257960Y251640D01*
X257401Y252610D01*
X256610Y253401D01*
X255640Y253960D01*
X254559Y254250D01*
D02*
G37*
G36*
X314560Y244250D02*
X313440D01*
X312360Y243960D01*
X311390Y243401D01*
X310599Y242610D01*
X310040Y241640D01*
X309750Y240560D01*
Y239440D01*
X310040Y238360D01*
X310599Y237390D01*
X311390Y236599D01*
X312360Y236040D01*
X313440Y235750D01*
X314560D01*
X315640Y236040D01*
X316610Y236599D01*
X317401Y237390D01*
X317960Y238360D01*
X318250Y239440D01*
Y240560D01*
X317960Y241640D01*
X317401Y242610D01*
X316610Y243401D01*
X315640Y243960D01*
X314560Y244250D01*
D02*
G37*
G36*
X254559D02*
X253440D01*
X252360Y243960D01*
X251390Y243401D01*
X250599Y242610D01*
X250040Y241640D01*
X249750Y240560D01*
Y239440D01*
X250040Y238360D01*
X250599Y237390D01*
X251390Y236599D01*
X252360Y236040D01*
X253440Y235750D01*
X254559D01*
X255640Y236040D01*
X256610Y236599D01*
X257401Y237390D01*
X257960Y238360D01*
X258250Y239440D01*
Y240560D01*
X257960Y241640D01*
X257401Y242610D01*
X256610Y243401D01*
X255640Y243960D01*
X254559Y244250D01*
D02*
G37*
G36*
X314560Y234250D02*
X313440D01*
X312360Y233960D01*
X311390Y233401D01*
X310599Y232610D01*
X310040Y231640D01*
X309750Y230559D01*
Y229440D01*
X310040Y228360D01*
X310599Y227390D01*
X311390Y226599D01*
X312360Y226040D01*
X313440Y225750D01*
X314560D01*
X315640Y226040D01*
X316610Y226599D01*
X317401Y227390D01*
X317960Y228360D01*
X318250Y229440D01*
Y230559D01*
X317960Y231640D01*
X317401Y232610D01*
X316610Y233401D01*
X315640Y233960D01*
X314560Y234250D01*
D02*
G37*
G36*
X254559D02*
X253440D01*
X252360Y233960D01*
X251390Y233401D01*
X250599Y232610D01*
X250040Y231640D01*
X249750Y230559D01*
Y229440D01*
X250040Y228360D01*
X250599Y227390D01*
X251390Y226599D01*
X252360Y226040D01*
X253440Y225750D01*
X254559D01*
X255640Y226040D01*
X256610Y226599D01*
X257401Y227390D01*
X257960Y228360D01*
X258250Y229440D01*
Y230559D01*
X257960Y231640D01*
X257401Y232610D01*
X256610Y233401D01*
X255640Y233960D01*
X254559Y234250D01*
D02*
G37*
G36*
X616583Y225921D02*
X616500D01*
Y220500D01*
X621921D01*
Y220583D01*
X621694Y221727D01*
X621247Y222805D01*
X620599Y223775D01*
X619775Y224599D01*
X618805Y225247D01*
X617727Y225694D01*
X616583Y225921D01*
D02*
G37*
G36*
X615500D02*
X615417D01*
X614273Y225694D01*
X613195Y225247D01*
X612225Y224599D01*
X611401Y223775D01*
X610753Y222805D01*
X610306Y221727D01*
X610079Y220583D01*
Y220500D01*
X615500D01*
Y225921D01*
D02*
G37*
G36*
X314560Y224250D02*
X313440D01*
X312360Y223960D01*
X311390Y223401D01*
X310599Y222610D01*
X310040Y221640D01*
X309750Y220560D01*
Y219441D01*
X310040Y218360D01*
X310599Y217390D01*
X311390Y216599D01*
X312360Y216040D01*
X313440Y215750D01*
X314560D01*
X315640Y216040D01*
X316610Y216599D01*
X317401Y217390D01*
X317960Y218360D01*
X318250Y219441D01*
Y220560D01*
X317960Y221640D01*
X317401Y222610D01*
X316610Y223401D01*
X315640Y223960D01*
X314560Y224250D01*
D02*
G37*
G36*
X254559D02*
X253440D01*
X252360Y223960D01*
X251390Y223401D01*
X250599Y222610D01*
X250040Y221640D01*
X249750Y220560D01*
Y219441D01*
X250040Y218360D01*
X250599Y217390D01*
X251390Y216599D01*
X252360Y216040D01*
X253440Y215750D01*
X254559D01*
X255640Y216040D01*
X256610Y216599D01*
X257401Y217390D01*
X257960Y218360D01*
X258250Y219441D01*
Y220560D01*
X257960Y221640D01*
X257401Y222610D01*
X256610Y223401D01*
X255640Y223960D01*
X254559Y224250D01*
D02*
G37*
G36*
X621921Y219500D02*
X616500D01*
Y214079D01*
X616583D01*
X617727Y214306D01*
X618805Y214753D01*
X619775Y215401D01*
X620599Y216225D01*
X621247Y217195D01*
X621694Y218273D01*
X621921Y219417D01*
Y219500D01*
D02*
G37*
G36*
X615500D02*
X610079D01*
Y219417D01*
X610306Y218273D01*
X610753Y217195D01*
X611401Y216225D01*
X612225Y215401D01*
X613195Y214753D01*
X614273Y214306D01*
X615417Y214079D01*
X615500D01*
Y219500D01*
D02*
G37*
G36*
X514591Y215100D02*
X514500D01*
Y209600D01*
X520000D01*
Y209691D01*
X519769Y210850D01*
X519317Y211942D01*
X518660Y212925D01*
X517825Y213760D01*
X516842Y214417D01*
X515750Y214869D01*
X514591Y215100D01*
D02*
G37*
G36*
X513500D02*
X513409D01*
X512250Y214869D01*
X511158Y214417D01*
X510175Y213760D01*
X509340Y212925D01*
X508683Y211942D01*
X508231Y210850D01*
X508000Y209691D01*
Y209600D01*
X513500D01*
Y215100D01*
D02*
G37*
G36*
X424591D02*
X424500D01*
Y209600D01*
X430000D01*
Y209691D01*
X429769Y210850D01*
X429317Y211942D01*
X428660Y212925D01*
X427825Y213760D01*
X426842Y214417D01*
X425750Y214869D01*
X424591Y215100D01*
D02*
G37*
G36*
X423500D02*
X423409D01*
X422250Y214869D01*
X421158Y214417D01*
X420175Y213760D01*
X419340Y212925D01*
X418683Y211942D01*
X418231Y210850D01*
X418000Y209691D01*
Y209600D01*
X423500D01*
Y215100D01*
D02*
G37*
G36*
X334591D02*
X334500D01*
Y209600D01*
X340000D01*
Y209691D01*
X339769Y210850D01*
X339317Y211942D01*
X338661Y212925D01*
X337825Y213760D01*
X336842Y214417D01*
X335750Y214869D01*
X334591Y215100D01*
D02*
G37*
G36*
X333500D02*
X333409D01*
X332250Y214869D01*
X331158Y214417D01*
X330175Y213760D01*
X329340Y212925D01*
X328683Y211942D01*
X328231Y210850D01*
X328000Y209691D01*
Y209600D01*
X333500D01*
Y215100D01*
D02*
G37*
G36*
X520000Y208600D02*
X514500D01*
Y203100D01*
X514591D01*
X515750Y203331D01*
X516842Y203783D01*
X517825Y204439D01*
X518660Y205275D01*
X519317Y206258D01*
X519769Y207350D01*
X520000Y208509D01*
Y208600D01*
D02*
G37*
G36*
X513500D02*
X508000D01*
Y208509D01*
X508231Y207350D01*
X508683Y206258D01*
X509340Y205275D01*
X510175Y204439D01*
X511158Y203783D01*
X512250Y203331D01*
X513409Y203100D01*
X513500D01*
Y208600D01*
D02*
G37*
G36*
X430000D02*
X424500D01*
Y203100D01*
X424591D01*
X425750Y203331D01*
X426842Y203783D01*
X427825Y204439D01*
X428660Y205275D01*
X429317Y206258D01*
X429769Y207350D01*
X430000Y208509D01*
Y208600D01*
D02*
G37*
G36*
X423500D02*
X418000D01*
Y208509D01*
X418231Y207350D01*
X418683Y206258D01*
X419340Y205275D01*
X420175Y204439D01*
X421158Y203783D01*
X422250Y203331D01*
X423409Y203100D01*
X423500D01*
Y208600D01*
D02*
G37*
G36*
X340000D02*
X334500D01*
Y203100D01*
X334591D01*
X335750Y203331D01*
X336842Y203783D01*
X337825Y204439D01*
X338661Y205275D01*
X339317Y206258D01*
X339769Y207350D01*
X340000Y208509D01*
Y208600D01*
D02*
G37*
G36*
X333500D02*
X328000D01*
Y208509D01*
X328231Y207350D01*
X328683Y206258D01*
X329340Y205275D01*
X330175Y204439D01*
X331158Y203783D01*
X332250Y203331D01*
X333409Y203100D01*
X333500D01*
Y208600D01*
D02*
G37*
G36*
X561000Y232029D02*
X504598D01*
X503422Y231913D01*
X502291Y231570D01*
X501249Y231013D01*
X500335Y230263D01*
X483536Y213464D01*
X483348Y213235D01*
X483139Y213026D01*
X482974Y212779D01*
X482786Y212550D01*
X482647Y212289D01*
X482482Y212043D01*
X482369Y211769D01*
X482229Y211508D01*
X482143Y211225D01*
X482030Y210951D01*
X481972Y210661D01*
X481886Y210377D01*
X481857Y210082D01*
X481799Y209792D01*
Y209496D01*
X481770Y209201D01*
X481799Y208906D01*
Y208610D01*
X481857Y208319D01*
X481886Y208025D01*
X481972Y207741D01*
X482030Y207451D01*
X482143Y207177D01*
X482229Y206894D01*
X482369Y206632D01*
X482482Y206359D01*
X482647Y206112D01*
X482786Y205851D01*
X482974Y205622D01*
X483139Y205376D01*
X483348Y205167D01*
X483536Y204938D01*
X483765Y204750D01*
X483974Y204540D01*
X484221Y204376D01*
X484450Y204188D01*
X484711Y204048D01*
X484957Y203884D01*
X485231Y203770D01*
X485492Y203631D01*
X485776Y203545D01*
X486049Y203431D01*
X486340Y203374D01*
X486623Y203288D01*
X486918Y203259D01*
X487208Y203201D01*
X487504D01*
X487799Y203172D01*
X488094Y203201D01*
X488390D01*
X488681Y203259D01*
X488975Y203288D01*
X489259Y203374D01*
X489549Y203431D01*
X489823Y203545D01*
X490106Y203631D01*
X490368Y203770D01*
X490641Y203884D01*
X490888Y204048D01*
X491149Y204188D01*
X491378Y204376D01*
X491624Y204540D01*
X491833Y204750D01*
X492062Y204938D01*
X507096Y219971D01*
X558503D01*
X573536Y204938D01*
X582422Y196052D01*
X583335Y195302D01*
X584378Y194745D01*
X585509Y194402D01*
X586685Y194286D01*
X616000D01*
X617176Y194402D01*
X618307Y194745D01*
X619349Y195302D01*
X620263Y196052D01*
X621013Y196965D01*
X621570Y198008D01*
X621913Y199139D01*
X622029Y200315D01*
X621913Y201491D01*
X621570Y202622D01*
X621013Y203664D01*
X620263Y204578D01*
X619349Y205328D01*
X618307Y205885D01*
X617176Y206228D01*
X616000Y206344D01*
X589182D01*
X582062Y213464D01*
X565263Y230263D01*
X564350Y231013D01*
X563307Y231570D01*
X562176Y231913D01*
X561000Y232029D01*
D02*
G37*
%LPD*%
D10*
X640000Y184000D02*
Y436500D01*
X244000D02*
X640000D01*
X244000Y430000D02*
Y436500D01*
Y184000D02*
X640000D01*
X244000D02*
Y430000D01*
D21*
X276000Y398941D02*
Y422500D01*
Y398941D02*
X282000Y392941D01*
X314000Y290000D02*
Y290500D01*
X282000Y322500D02*
X314000Y290500D01*
X282000Y322500D02*
Y392941D01*
X284000Y416500D02*
X294500Y406000D01*
X440000Y431000D02*
X449000Y422000D01*
X274500Y431000D02*
X440000D01*
X270500Y427000D02*
X274500Y431000D01*
X276000Y422500D02*
X281500Y428000D01*
X299336D01*
X270500Y323500D02*
Y427000D01*
Y323500D02*
X314000Y280000D01*
X292000Y270000D02*
X314000D01*
X265500Y296500D02*
X292000Y270000D01*
X265500Y296500D02*
Y384500D01*
X256500Y393500D02*
X265500Y384500D01*
X256500Y393500D02*
Y424500D01*
X266000Y434000D01*
X442000D01*
X444250Y431750D01*
X449000Y422000D02*
X460000D01*
X444250Y431750D02*
X547935D01*
X558000Y421685D01*
X314000Y260000D02*
X321500D01*
X323500Y262000D01*
Y339500D01*
X318000Y345000D02*
X323500Y339500D01*
X309000Y356500D02*
X310500Y355000D01*
X322500D01*
X308000Y345000D02*
X318000D01*
X304000Y349000D02*
X308000Y345000D01*
X304000Y349000D02*
Y363500D01*
X311500Y371000D01*
X316500D01*
X340500Y395000D01*
X595657D01*
X620500Y419842D01*
X314000Y250000D02*
X327000D01*
X330500Y253500D01*
X311929Y365000D02*
X319500D01*
X345500Y391000D01*
X330500Y253500D02*
Y347000D01*
X322500Y355000D02*
X330500Y347000D01*
X309000Y356500D02*
Y362071D01*
X311929Y365000D01*
X610343Y350157D02*
X616500D01*
X345500Y391000D02*
X590500D01*
X604500Y377000D01*
Y356000D02*
Y377000D01*
Y356000D02*
X610343Y350157D01*
X294500Y319500D02*
Y406000D01*
Y319500D02*
X314000Y300000D01*
X299023Y427687D02*
X299336Y428000D01*
X299023Y427687D02*
X354356D01*
X360358Y421685D01*
X372000D01*
X284000Y416500D02*
Y422000D01*
D22*
X314000Y360000D02*
X325000D01*
X335500Y349500D01*
Y240000D02*
Y349500D01*
Y240000D02*
X366299Y209201D01*
X397799D01*
D23*
X304000Y330000D02*
X314000D01*
X299500Y334500D02*
X304000Y330000D01*
X299500Y334500D02*
Y383000D01*
X313500Y397000D01*
X568000Y412000D02*
X577685Y421685D01*
X469685Y412000D02*
X568000D01*
X469685D02*
X479685Y422000D01*
X382000Y412000D02*
X469685D01*
X382000D02*
X391685Y421685D01*
X313500Y412000D02*
X382000D01*
X303685Y421815D02*
Y422000D01*
Y421815D02*
X313500Y412000D01*
Y397000D02*
Y412000D01*
D24*
X588000Y382000D02*
X594000Y376000D01*
X530472Y382000D02*
X588000D01*
X334315Y365843D02*
X350472Y382000D01*
X408157D01*
X424315Y365843D01*
X440472Y382000D01*
X498158D01*
X514315Y365843D01*
X530472Y382000D01*
X594000Y342000D02*
Y376000D01*
Y342000D02*
X616000Y320000D01*
X577799Y318201D02*
Y365744D01*
Y318201D02*
X595685Y300315D01*
X616000D01*
X487799Y209201D02*
X504598Y226000D01*
X561000D01*
X577799Y209201D01*
X586685Y200315D01*
X616000D01*
X397799Y358201D02*
Y365744D01*
Y358201D02*
X406000Y350000D01*
X438000D01*
X453744Y365744D01*
X487799D01*
Y360201D02*
Y365744D01*
Y360201D02*
X500000Y348000D01*
X522000D01*
X539744Y365744D01*
X577799D01*
D25*
X516000Y270000D02*
X616000D01*
X440000Y194000D02*
X516000Y270000D01*
X278000Y194000D02*
X440000D01*
X254000Y280000D02*
X266000D01*
X274000Y272000D01*
Y198000D02*
Y272000D01*
Y198000D02*
X278000Y194000D01*
X254000Y270000D02*
X260000D01*
X264000Y266000D01*
Y196000D02*
Y266000D01*
Y196000D02*
X272000Y188000D01*
X452000D01*
X514315Y250315D01*
X616000D01*
D26*
X303685Y422000D02*
D03*
X577685Y421685D02*
D03*
X391685D02*
D03*
X479685Y422000D02*
D03*
D27*
X284000D02*
D03*
X264315D02*
D03*
X303685Y402315D02*
D03*
X284000D02*
D03*
X264315D02*
D03*
X558000Y421685D02*
D03*
X538315D02*
D03*
X577685Y402000D02*
D03*
X558000D02*
D03*
X538315D02*
D03*
X352315D02*
D03*
X372000D02*
D03*
X391685D02*
D03*
X352315Y421685D02*
D03*
X372000D02*
D03*
X440315Y402315D02*
D03*
X460000D02*
D03*
X479685D02*
D03*
X440315Y422000D02*
D03*
X460000D02*
D03*
D28*
X424315Y365843D02*
D03*
X487799Y209201D02*
D03*
X424000Y209100D02*
D03*
X514315Y365843D02*
D03*
X577799Y209201D02*
D03*
X514000Y209100D02*
D03*
X334315Y365843D02*
D03*
X397799Y209201D02*
D03*
X334000Y209100D02*
D03*
D29*
X487799Y365744D02*
D03*
X577799D02*
D03*
X397799D02*
D03*
D30*
X616000Y250315D02*
D03*
Y270000D02*
D03*
Y200315D02*
D03*
Y220000D02*
D03*
X620500Y419842D02*
D03*
Y400157D02*
D03*
X616500Y369843D02*
D03*
Y350157D02*
D03*
X617000Y319843D02*
D03*
Y300157D02*
D03*
D31*
X314000Y290000D02*
D03*
Y280000D02*
D03*
Y270000D02*
D03*
Y260000D02*
D03*
Y250000D02*
D03*
Y240000D02*
D03*
Y230000D02*
D03*
Y220000D02*
D03*
Y300000D02*
D03*
Y310000D02*
D03*
Y320000D02*
D03*
Y330000D02*
D03*
Y340000D02*
D03*
Y350000D02*
D03*
Y360000D02*
D03*
X254000Y220000D02*
D03*
Y230000D02*
D03*
Y240000D02*
D03*
Y250000D02*
D03*
Y260000D02*
D03*
Y270000D02*
D03*
Y280000D02*
D03*
Y290000D02*
D03*
Y300000D02*
D03*
Y310000D02*
D03*
Y320000D02*
D03*
Y330000D02*
D03*
Y340000D02*
D03*
Y350000D02*
D03*
Y360000D02*
D03*
M02*
