M48
;Layer_Color=6321
;FILE_FORMAT=2:5
INCH,LZ
;TYPE=PLATED
T1F00S00C0.03800
T2F00S00C0.04921
T3F00S00C0.05118
T4F00S00C0.06000
%
T01
X0314Y022
Y023
Y024
Y025
Y026
Y027
Y028
Y029
Y03
Y031
X0254
Y03
Y029
Y028
Y027
Y026
Y025
Y024
Y023
Y022
Y032
Y033
Y034
Y035
Y036
X0314
Y035
Y034
Y033
Y032
T02
X0264315Y0402315
Y0422
X0284
X0303685
Y0402315
X0284
X0352315Y0402
X0372
X0391685
Y0421685
X0372
X0352315
X0440315Y0422
Y0402315
X046
Y0422
X0479685
Y0402315
X0538315Y0402
Y0421685
X0558
X0577685
Y0402
X0558
T03
X0616Y0200315
Y022
Y0250315
Y027
X0617Y0300157
Y0319843
X06165Y0350157
Y0369843
X06205Y0400157
Y0419842
T04
X0487799Y0209201
X0514Y02091
X0577799Y0209201
X0424Y02091
X0397799Y0209201
X0334Y02091
X0334315Y0365843
X0397799Y0365744
X0424315Y0365843
X0487799Y0365744
X0514315Y0365843
X0577799Y0365744
M30
