G04*
G04 #@! TF.GenerationSoftware,Altium Limited,CircuitMaker,2.2.1 (6)*
G04*
G04 Layer_Physical_Order=2*
G04 Layer_Color=204*
%FSLAX25Y25*%
%MOIN*%
G70*
G04*
G04 #@! TF.SameCoordinates,E9A488FF-F020-425E-AD06-6B1E6BE10ADD*
G04*
G04*
G04 #@! TF.FilePolarity,Positive*
G04*
G01*
G75*
%ADD26R,0.07874X0.07874*%
%ADD27C,0.07874*%
%ADD28C,0.10000*%
%ADD29C,0.15000*%
%ADD30C,0.09842*%
%ADD31C,0.06500*%
D26*
X303685Y422000D02*
D03*
X577685Y421685D02*
D03*
X391685D02*
D03*
X479685Y422000D02*
D03*
D27*
X284000D02*
D03*
X264315D02*
D03*
X303685Y402315D02*
D03*
X284000D02*
D03*
X264315D02*
D03*
X558000Y421685D02*
D03*
X538315D02*
D03*
X577685Y402000D02*
D03*
X558000D02*
D03*
X538315D02*
D03*
X352315D02*
D03*
X372000D02*
D03*
X391685D02*
D03*
X352315Y421685D02*
D03*
X372000D02*
D03*
X440315Y402315D02*
D03*
X460000D02*
D03*
X479685D02*
D03*
X440315Y422000D02*
D03*
X460000D02*
D03*
D28*
X424315Y365843D02*
D03*
X487799Y209201D02*
D03*
X424000Y209100D02*
D03*
X514315Y365843D02*
D03*
X577799Y209201D02*
D03*
X514000Y209100D02*
D03*
X334315Y365843D02*
D03*
X397799Y209201D02*
D03*
X334000Y209100D02*
D03*
D29*
X487799Y365744D02*
D03*
X577799D02*
D03*
X397799D02*
D03*
D30*
X616000Y250315D02*
D03*
Y270000D02*
D03*
Y200315D02*
D03*
Y220000D02*
D03*
X620500Y419842D02*
D03*
Y400157D02*
D03*
X616500Y369843D02*
D03*
Y350157D02*
D03*
X617000Y319843D02*
D03*
Y300157D02*
D03*
D31*
X314000Y290000D02*
D03*
Y280000D02*
D03*
Y270000D02*
D03*
Y260000D02*
D03*
Y250000D02*
D03*
Y240000D02*
D03*
Y230000D02*
D03*
Y220000D02*
D03*
Y300000D02*
D03*
Y310000D02*
D03*
Y320000D02*
D03*
Y330000D02*
D03*
Y340000D02*
D03*
Y350000D02*
D03*
Y360000D02*
D03*
X254000Y220000D02*
D03*
Y230000D02*
D03*
Y240000D02*
D03*
Y250000D02*
D03*
Y260000D02*
D03*
Y270000D02*
D03*
Y280000D02*
D03*
Y290000D02*
D03*
Y300000D02*
D03*
Y310000D02*
D03*
Y320000D02*
D03*
Y330000D02*
D03*
Y340000D02*
D03*
Y350000D02*
D03*
Y360000D02*
D03*
M02*
